<svg width="64" height="56" viewBox="0 0 64 56" fill="none" xmlns="http://www.w3.org/2000/svg">
<path fill-rule="evenodd" clip-rule="evenodd" d="M63.9993 32.2212C63.9998 32.1475 64 32.0738 64 32C64 14.3269 49.6731 0 32 0C14.3269 0 0 14.3269 0 32C0 37.7662 1.52514 43.1762 4.19402 47.8486L23.6364 22.0967L32.3636 33.6667L48.7273 12L63.9993 32.2212ZM61.7834 43.7259L48.7273 26.43L37.8182 40.9033L48.7273 55.3333H53.8989C57.3195 52.1218 60.0337 48.1666 61.7834 43.7259ZM10.1011 55.3333H37.8182L23.6364 36.57L9.72546 54.9749C9.8497 55.0954 9.97492 55.2149 10.1011 55.3333Z" fill="#1F618D"/>
</svg>
