<svg width="231" height="70" viewBox="0 0 231 70" fill="none" xmlns="http://www.w3.org/2000/svg">
<path fill-rule="evenodd" clip-rule="evenodd" d="M79.9991 40.7618C79.9997 40.6686 80 40.5753 80 40.4819C80 18.1244 62.0914 0 40 0C17.9086 0 0 18.1244 0 40.4819C0 47.7766 1.90642 54.6205 5.24253 60.5314L29.5455 27.9536L40.4545 42.5904L60.9091 15.1807L79.9991 40.7618ZM77.2292 55.3159L60.9091 33.4355L47.2727 51.7452L60.9091 70H67.3736C71.6494 65.9372 75.0421 60.9337 77.2292 55.3159ZM12.6264 70H47.2727L29.5455 46.2633L12.1568 69.5466C12.3121 69.699 12.4686 69.8501 12.6264 70Z" fill="#1F4B8D"/>
<path d="M105.543 58H97.6342L109.685 23.0909H119.197L131.231 58H123.322L114.577 31.0682H114.305L105.543 58ZM105.049 44.2784H123.731V50.0398H105.049V44.2784ZM137.18 58L130.055 31.8182H137.401L141.458 49.4091H141.697L145.924 31.8182H153.134L157.43 49.3068H157.651L161.64 31.8182H168.969L161.862 58H154.174L149.674 41.5341H149.35L144.85 58H137.18ZM180.309 58.4943C178.638 58.4943 177.15 58.2045 175.843 57.625C174.536 57.0341 173.502 56.1648 172.741 55.017C171.991 53.858 171.616 52.4148 171.616 50.6875C171.616 49.233 171.883 48.0114 172.417 47.0227C172.951 46.0341 173.678 45.2386 174.599 44.6364C175.519 44.0341 176.565 43.5795 177.735 43.2727C178.917 42.9659 180.156 42.75 181.451 42.625C182.974 42.4659 184.201 42.3182 185.133 42.1818C186.065 42.0341 186.741 41.8182 187.161 41.5341C187.582 41.25 187.792 40.8295 187.792 40.2727V40.1705C187.792 39.0909 187.451 38.2557 186.769 37.6648C186.099 37.0739 185.144 36.7784 183.906 36.7784C182.599 36.7784 181.559 37.0682 180.786 37.6477C180.013 38.2159 179.502 38.9318 179.252 39.7955L172.536 39.25C172.877 37.6591 173.548 36.2841 174.548 35.125C175.548 33.9545 176.837 33.0568 178.417 32.4318C180.008 31.7955 181.849 31.4773 183.94 31.4773C185.394 31.4773 186.786 31.6477 188.116 31.9886C189.457 32.3295 190.644 32.858 191.678 33.5739C192.724 34.2898 193.548 35.2102 194.15 36.3352C194.752 37.4489 195.053 38.7841 195.053 40.3409V58H188.167V54.3693H187.962C187.542 55.1875 186.979 55.9091 186.275 56.5341C185.57 57.1477 184.724 57.6307 183.735 57.983C182.746 58.3239 181.604 58.4943 180.309 58.4943ZM182.388 53.483C183.457 53.483 184.4 53.2727 185.218 52.8523C186.036 52.4205 186.678 51.8409 187.144 51.1136C187.61 50.3864 187.843 49.5625 187.843 48.642V45.8636C187.616 46.0114 187.303 46.1477 186.906 46.2727C186.519 46.3864 186.082 46.4943 185.593 46.5966C185.104 46.6875 184.616 46.7727 184.127 46.8523C183.638 46.9205 183.195 46.983 182.798 47.0398C181.945 47.1648 181.201 47.3636 180.565 47.6364C179.928 47.9091 179.434 48.2784 179.082 48.7443C178.729 49.1989 178.553 49.767 178.553 50.4489C178.553 51.4375 178.911 52.1932 179.627 52.7159C180.354 53.2273 181.275 53.483 182.388 53.483ZM200.687 58V31.8182H207.727V36.3864H207.999C208.477 34.7614 209.278 33.5341 210.403 32.7045C211.528 31.8636 212.823 31.4432 214.289 31.4432C214.653 31.4432 215.045 31.4659 215.465 31.5114C215.886 31.5568 216.255 31.6193 216.573 31.6989V38.142C216.232 38.0398 215.761 37.9489 215.158 37.8693C214.556 37.7898 214.005 37.75 213.505 37.75C212.437 37.75 211.482 37.983 210.641 38.4489C209.812 38.9034 209.153 39.5398 208.664 40.358C208.187 41.1761 207.948 42.1193 207.948 43.1875V58H200.687ZM220.327 58V31.8182H227.589V58H220.327ZM223.975 28.4432C222.896 28.4432 221.969 28.0852 221.197 27.3693C220.435 26.642 220.055 25.7727 220.055 24.7614C220.055 23.7614 220.435 22.9034 221.197 22.1875C221.969 21.4602 222.896 21.0966 223.975 21.0966C225.055 21.0966 225.975 21.4602 226.737 22.1875C227.509 22.9034 227.896 23.7614 227.896 24.7614C227.896 25.7727 227.509 26.642 226.737 27.3693C225.975 28.0852 225.055 28.4432 223.975 28.4432Z" fill="#1F4B8D"/>
</svg>
